<mxfile host="app.diagrams.net" modified="2024-07-11T07:18:43.223Z" agent="Mozilla/5.0 (Windows NT 10.0; Win64; x64) AppleWebKit/537.36 (KHTML, like Gecko) Chrome/126.0.0.0 Safari/537.36" etag="nsOYV3qEGK_r5s2pCLbX" version="24.6.4" type="device">
  <diagram name="페이지-1" id="hkUpkyQfRMKP-bHNrYHr">
    <mxGraphModel dx="1434" dy="772" grid="1" gridSize="10" guides="1" tooltips="1" connect="1" arrows="1" fold="1" page="1" pageScale="1" pageWidth="827" pageHeight="1169" math="0" shadow="0">
      <root>
        <mxCell id="0" />
        <mxCell id="1" parent="0" />
        <mxCell id="ehrtUDtLnAOZT0-LPxlq-26" style="rounded=0;orthogonalLoop=1;jettySize=auto;html=1;entryX=0.5;entryY=0;entryDx=0;entryDy=0;" edge="1" parent="1" source="ehrtUDtLnAOZT0-LPxlq-18" target="ehrtUDtLnAOZT0-LPxlq-19">
          <mxGeometry relative="1" as="geometry" />
        </mxCell>
        <mxCell id="ehrtUDtLnAOZT0-LPxlq-27" style="rounded=0;orthogonalLoop=1;jettySize=auto;html=1;" edge="1" parent="1" source="ehrtUDtLnAOZT0-LPxlq-18" target="ehrtUDtLnAOZT0-LPxlq-20">
          <mxGeometry relative="1" as="geometry" />
        </mxCell>
        <mxCell id="ehrtUDtLnAOZT0-LPxlq-28" style="rounded=0;orthogonalLoop=1;jettySize=auto;html=1;entryX=0.5;entryY=0;entryDx=0;entryDy=0;" edge="1" parent="1" source="ehrtUDtLnAOZT0-LPxlq-18" target="ehrtUDtLnAOZT0-LPxlq-21">
          <mxGeometry relative="1" as="geometry" />
        </mxCell>
        <mxCell id="ehrtUDtLnAOZT0-LPxlq-29" style="rounded=0;orthogonalLoop=1;jettySize=auto;html=1;entryX=0.5;entryY=0;entryDx=0;entryDy=0;" edge="1" parent="1" source="ehrtUDtLnAOZT0-LPxlq-18" target="ehrtUDtLnAOZT0-LPxlq-22">
          <mxGeometry relative="1" as="geometry" />
        </mxCell>
        <mxCell id="ehrtUDtLnAOZT0-LPxlq-30" style="rounded=0;orthogonalLoop=1;jettySize=auto;html=1;entryX=0.5;entryY=0;entryDx=0;entryDy=0;" edge="1" parent="1" source="ehrtUDtLnAOZT0-LPxlq-18" target="ehrtUDtLnAOZT0-LPxlq-23">
          <mxGeometry relative="1" as="geometry" />
        </mxCell>
        <mxCell id="ehrtUDtLnAOZT0-LPxlq-31" style="rounded=0;orthogonalLoop=1;jettySize=auto;html=1;entryX=0.5;entryY=0;entryDx=0;entryDy=0;" edge="1" parent="1" source="ehrtUDtLnAOZT0-LPxlq-18" target="ehrtUDtLnAOZT0-LPxlq-24">
          <mxGeometry relative="1" as="geometry" />
        </mxCell>
        <mxCell id="ehrtUDtLnAOZT0-LPxlq-18" value="학생정보" style="rounded=1;arcSize=10;whiteSpace=wrap;html=1;align=center;" vertex="1" parent="1">
          <mxGeometry x="350" y="30" width="114" height="40" as="geometry" />
        </mxCell>
        <mxCell id="ehrtUDtLnAOZT0-LPxlq-19" value="학번" style="ellipse;whiteSpace=wrap;html=1;align=center;fontStyle=4;" vertex="1" parent="1">
          <mxGeometry x="60" y="180" width="100" height="40" as="geometry" />
        </mxCell>
        <mxCell id="ehrtUDtLnAOZT0-LPxlq-20" value="학생이름" style="ellipse;whiteSpace=wrap;html=1;align=center;" vertex="1" parent="1">
          <mxGeometry x="176" y="180" width="100" height="40" as="geometry" />
        </mxCell>
        <mxCell id="ehrtUDtLnAOZT0-LPxlq-21" value="학과" style="ellipse;whiteSpace=wrap;html=1;align=center;" vertex="1" parent="1">
          <mxGeometry x="292" y="180" width="100" height="40" as="geometry" />
        </mxCell>
        <mxCell id="ehrtUDtLnAOZT0-LPxlq-22" value="학년" style="ellipse;whiteSpace=wrap;html=1;align=center;" vertex="1" parent="1">
          <mxGeometry x="408" y="180" width="100" height="40" as="geometry" />
        </mxCell>
        <mxCell id="ehrtUDtLnAOZT0-LPxlq-23" value="전화번호" style="ellipse;whiteSpace=wrap;html=1;align=center;" vertex="1" parent="1">
          <mxGeometry x="524" y="180" width="100" height="40" as="geometry" />
        </mxCell>
        <mxCell id="ehrtUDtLnAOZT0-LPxlq-24" value="주소" style="ellipse;whiteSpace=wrap;html=1;align=center;" vertex="1" parent="1">
          <mxGeometry x="640" y="180" width="100" height="40" as="geometry" />
        </mxCell>
      </root>
    </mxGraphModel>
  </diagram>
</mxfile>
